<?xml version="1.0" standalone="no"?>
<!DOCTYPE svg PUBLIC "-//W3C//DTD SVG 20010904//EN"
 "http://www.w3.org/TR/2001/REC-SVG-20010904/DTD/svg10.dtd">
<svg version="1.0" xmlns="http://www.w3.org/2000/svg"
 width="394.000000pt" height="443.000000pt" viewBox="0 0 394.000000 443.000000"
 preserveAspectRatio="xMidYMid meet">

<g transform="translate(0.000000,443.000000) scale(0.100000,-0.100000)"
fill="#000000" stroke="none">
<path d="M1853 4400 c-661 -58 -1202 -513 -1368 -1150 -72 -275 -52 -609 54
-882 77 -199 182 -360 334 -517 438 -448 1113 -589 1702 -354 241 96 422 221
582 403 259 292 383 615 383 995 1 377 -125 704 -383 995 -318 360 -812 553
-1304 510z m362 -175 c440 -71 811 -334 1009 -715 79 -152 111 -248 140 -415
55 -317 -33 -685 -229 -960 -58 -81 -133 -165 -147 -165 -4 0 -8 11 -8 25 0
44 -47 174 -89 244 -94 159 -277 261 -468 261 -53 0 -93 -35 -93 -83 0 -52 30
-73 126 -85 142 -17 242 -79 304 -188 35 -63 70 -196 70 -272 l0 -52 -67 -44
c-147 -94 -302 -159 -474 -198 -139 -31 -446 -33 -579 -4 -176 38 -395 131
-519 220 l-43 31 6 69 c9 92 23 149 57 221 56 122 159 195 299 215 116 17 119
18 137 55 31 65 -13 115 -100 115 -114 -1 -244 -48 -338 -122 -92 -74 -179
-236 -205 -381 -6 -37 -7 -38 -26 -20 -11 10 -49 54 -83 98 -199 255 -288 512
-287 825 0 308 96 582 288 820 220 273 532 453 884 509 90 14 337 12 435 -4z"/>
<path d="M1867 3734 c-91 -22 -165 -62 -226 -123 -108 -109 -155 -241 -155
-436 -1 -110 2 -128 32 -215 62 -177 164 -332 318 -481 86 -83 154 -129 191
-129 29 0 111 61 196 145 207 204 337 465 337 677 0 223 -92 415 -242 505
-110 66 -309 92 -451 57z m248 -155 c154 -28 239 -124 272 -304 30 -168 -12
-321 -139 -502 -51 -73 -171 -208 -204 -229 -22 -15 -26 -14 -68 20 -96 79
-234 269 -286 392 -41 98 -52 181 -40 283 16 128 53 212 115 264 91 75 211
102 350 76z"/>
<path d="M1617 2243 c-4 -3 -7 -19 -7 -34 0 -31 -21 -21 261 -125 81 -30 150
-54 154 -54 15 0 390 142 403 152 20 17 11 62 -13 66 -12 2 -101 -27 -198 -63
-98 -36 -184 -65 -190 -65 -7 0 -93 29 -192 65 -176 64 -205 72 -218 58z"/>
<path d="M1507 1244 c-3 -39 -29 -148 -61 -254 -67 -221 -86 -308 -86 -393 0
-67 20 -149 44 -182 12 -17 12 -12 -1 35 -10 39 -13 82 -9 150 5 94 17 143 89
388 38 128 55 260 40 301 -8 20 -11 13 -16 -45z"/>
<path d="M140 1255 l-25 -16 25 5 c13 3 74 -2 135 -10 113 -16 269 -15 295 1
17 12 -61 20 -270 30 -114 5 -139 3 -160 -10z"/>
<path d="M630 1255 c-8 -10 -35 -31 -60 -46 -48 -30 -41 -38 13 -15 37 15 71
50 65 67 -2 7 -9 5 -18 -6z"/>
<path d="M1550 1234 c0 -53 -24 -179 -60 -319 -15 -60 -31 -130 -34 -155 l-7
-45 20 36 c11 20 39 92 63 160 39 113 42 133 43 224 0 62 -5 108 -12 120 -11
18 -12 15 -13 -21z"/>
<path d="M626 1200 c-64 -65 -180 -84 -341 -55 -101 18 -191 18 -230 0 l-30
-14 30 5 c27 5 214 -22 224 -31 2 -2 -17 -73 -42 -157 -25 -84 -51 -181 -58
-215 -16 -88 -8 -216 19 -277 28 -61 36 -56 16 9 -26 83 -14 234 30 380 20 66
44 150 53 188 9 37 21 67 25 67 11 0 1 -63 -33 -200 -16 -63 -29 -128 -28
-145 l1 -30 13 30 c28 60 95 275 95 304 0 16 5 33 12 37 19 12 3 -82 -46 -258
-71 -255 -91 -433 -27 -233 47 145 90 329 98 412 l6 73 36 5 c102 16 162 48
194 103 23 39 20 40 -17 2z"/>
<path d="M2996 1201 c4 -19 0 -38 -11 -55 -22 -33 -16 -40 19 -25 34 16 43 52
22 84 -22 34 -37 32 -30 -4z"/>
<path d="M3752 1173 c0 -32 -8 -90 -17 -130 -13 -59 -20 -72 -39 -77 -25 -6
-86 -69 -86 -87 0 -6 16 3 36 21 l37 32 96 -7 c89 -6 98 -5 121 14 l25 21 -27
-6 -27 -6 -3 74 -3 73 -14 -73 c-7 -40 -16 -71 -19 -67 -4 3 -5 39 -3 79 2 69
-11 150 -27 160 -4 2 -8 -30 -10 -72 -3 -90 -13 -144 -28 -149 -7 -2 -6 23 3
74 10 59 11 91 2 131 -6 28 -12 52 -13 52 -2 0 -3 -26 -4 -57z"/>
<path d="M94 1206 c-18 -8 -34 -18 -37 -23 -3 -4 81 -9 186 -11 105 -1 188 0
185 4 -4 3 -44 14 -90 25 -97 22 -200 24 -244 5z"/>
<path d="M3067 1182 c5 -39 3 -45 -30 -76 -20 -18 -33 -36 -30 -40 12 -12 41
-6 67 15 33 26 36 85 7 120 l-20 24 6 -43z"/>
<path d="M2950 1175 c0 -8 5 -15 10 -15 6 0 10 7 10 15 0 8 -4 15 -10 15 -5 0
-10 -7 -10 -15z"/>
<path d="M1596 1082 c-3 -26 -25 -108 -47 -182 -23 -74 -50 -166 -60 -204 -18
-72 -35 -196 -26 -196 3 0 15 30 28 68 12 37 30 84 41 105 27 53 87 117 110
117 18 0 19 -5 14 -37 -18 -115 -19 -213 -2 -258 18 -45 68 -105 88 -105 6 0
-1 9 -15 20 -58 46 -77 176 -43 292 42 142 -24 186 -107 71 -37 -52 -46 -50
-18 5 43 85 123 119 157 67 13 -20 16 -42 12 -100 -3 -41 -2 -72 2 -70 15 9
41 124 34 152 -18 76 -71 100 -142 64 -31 -16 -40 -17 -36 -7 3 8 22 22 41 31
49 24 100 14 136 -25 22 -25 27 -39 27 -83 0 -28 -7 -81 -16 -117 -45 -190
-38 -239 13 -93 45 128 53 222 26 284 -33 74 -121 101 -190 59 -36 -22 -39
-17 -24 40 14 55 22 150 12 150 -4 0 -11 -21 -15 -48z"/>
<path d="M2574 956 c-115 -52 -194 -202 -194 -369 1 -143 50 -207 148 -193
116 16 219 125 257 273 30 116 12 216 -49 272 -32 30 -115 39 -162 17z m133
-38 c34 -17 63 -85 63 -150 0 -200 -173 -400 -301 -348 -86 36 -92 235 -11
383 59 108 163 156 249 115z"/>
<path d="M2596 910 c-135 -42 -230 -358 -136 -452 30 -29 55 -35 80 -17 13 9
13 10 0 7 -34 -5 -70 13 -87 45 -55 105 19 312 132 367 57 27 92 19 111 -26
17 -40 18 -124 3 -177 -6 -22 -8 -41 -5 -44 11 -11 37 69 43 131 12 128 -45
196 -141 166z"/>
<path d="M2576 841 c-32 -21 -66 -68 -66 -91 0 -8 7 -1 15 15 19 36 64 75 87
75 28 0 41 -38 35 -106 -8 -108 -91 -253 -137 -241 -23 6 -27 -11 -5 -19 38
-15 123 74 158 163 43 109 27 223 -30 223 -15 0 -41 -9 -57 -19z"/>
<path d="M695 936 c-62 -28 -109 -81 -149 -165 -24 -54 -31 -82 -34 -154 -5
-103 12 -162 59 -202 45 -37 55 -30 15 10 -42 42 -51 80 -43 188 11 135 79
247 182 297 87 42 157 15 176 -68 10 -47 -5 -97 -44 -142 -12 -14 -4 -9 16 11
103 97 44 249 -96 249 -18 0 -55 -11 -82 -24z"/>
<path d="M1124 941 c-122 -55 -201 -210 -192 -377 6 -114 39 -159 124 -169 39
-5 39 -5 8 5 -47 15 -91 71 -100 126 -16 107 19 238 86 322 76 97 206 121 279
53 34 -32 40 -28 15 8 -36 51 -144 67 -220 32z"/>
<path d="M1952 884 c-7 -45 -31 -155 -52 -245 -48 -196 -64 -320 -55 -412 7
-78 28 -154 49 -182 12 -16 11 -11 -2 25 -12 34 -16 78 -16 180 0 126 3 147
43 305 32 123 45 197 49 270 6 133 -1 159 -16 59z"/>
<path d="M2120 940 c-19 -10 -43 -32 -53 -49 l-18 -30 52 34 c41 28 61 35 99
35 95 0 140 -72 120 -193 -20 -126 -59 -198 -151 -281 -56 -51 -57 -55 -1 -27
55 28 119 102 155 179 28 59 32 78 32 152 0 99 -20 151 -69 181 -40 25 -119
24 -166 -1z"/>
<path d="M3153 921 c-1 -22 -20 -97 -42 -166 -49 -150 -55 -233 -19 -296 12
-22 32 -46 45 -54 l22 -15 -24 36 c-45 67 -46 167 -1 284 39 104 50 179 34
219 l-14 34 -1 -42z"/>
<path d="M3319 943 c-35 -21 -59 -63 -59 -102 0 -16 -18 -87 -40 -157 -30 -95
-40 -141 -38 -178 l3 -51 38 115 c41 121 71 182 106 214 20 18 23 18 38 4 14
-15 14 -22 -1 -88 -23 -101 -21 -184 5 -237 12 -24 29 -48 39 -53 17 -9 17 -7
-1 27 -29 57 -33 114 -15 217 10 51 16 113 14 137 -3 39 -6 44 -29 47 -20 2
-36 -6 -63 -34 -50 -52 -45 -24 5 31 77 83 118 53 120 -85 l1 -85 16 35 c9 20
16 63 16 103 1 61 -2 71 -23 88 -44 36 -117 16 -163 -43 -10 -13 -18 -18 -18
-11 0 23 61 82 95 92 75 21 128 -21 139 -111 5 -40 1 -77 -19 -153 -14 -55
-25 -113 -25 -130 1 -53 68 111 80 193 14 99 0 161 -46 202 -30 26 -42 30 -92
30 -35 0 -67 -7 -83 -17z"/>
<path d="M2926 909 c-3 -24 -25 -98 -48 -164 -59 -174 -56 -268 11 -329 l22
-20 -20 45 c-32 70 -28 154 14 273 39 111 51 180 37 215 -8 23 -9 21 -16 -20z"/>
<path d="M1992 871 c-2 -73 -15 -170 -51 -376 -32 -182 -10 -145 45 75 37 147
45 287 20 345 -12 28 -12 25 -14 -44z"/>
<path d="M2967 877 c-3 -36 -16 -102 -27 -147 -32 -125 -22 -140 24 -40 44 95
53 172 25 224 l-16 29 -6 -66z"/>
<path d="M3193 882 c-1 -32 -11 -98 -22 -146 -12 -48 -21 -97 -20 -109 0 -25
63 104 79 163 12 43 0 114 -22 136 -11 11 -13 3 -15 -44z"/>
<path d="M1139 900 c-53 -28 -95 -81 -113 -143 -25 -85 -19 -96 15 -30 52 101
117 155 186 155 75 0 107 -59 62 -116 -29 -37 -6 -33 25 5 29 34 32 55 14 94
-25 55 -119 72 -189 35z"/>
<path d="M3896 912 c-5 -8 -35 -12 -86 -12 -43 0 -81 -4 -84 -8 -10 -16 46
-37 95 -37 51 0 96 29 87 56 -3 10 -6 10 -12 1z"/>
<path d="M717 881 c-30 -20 -56 -48 -76 -83 -43 -74 -38 -81 14 -21 80 91 149
117 181 68 13 -20 14 -30 4 -60 -14 -43 -65 -97 -118 -124 -47 -25 -21 -27 33
-2 53 24 112 91 121 136 7 41 -10 91 -37 105 -32 18 -74 11 -122 -19z"/>
<path d="M2133 894 c-45 -23 -70 -67 -83 -149 -6 -39 -29 -149 -51 -245 -22
-96 -42 -211 -45 -255 l-4 -80 20 60 c11 33 25 83 31 112 10 44 15 52 40 57
29 5 126 92 115 103 -3 3 -26 -13 -52 -36 -26 -22 -56 -41 -67 -41 -17 0 -12
7 21 31 88 64 162 199 170 310 4 61 3 68 -17 78 -29 16 -70 -7 -110 -61 -32
-44 -42 -38 -16 11 21 41 72 81 104 81 68 0 91 -95 57 -231 -3 -13 6 0 21 30
77 160 -1 290 -134 225z m63 -145 c-13 -96 -66 -199 -137 -264 -17 -16 -30
-23 -27 -14 3 8 12 51 18 95 15 94 50 174 91 209 49 41 63 34 55 -26z"/>
<path d="M3630 858 c-32 -34 -23 -45 10 -13 17 16 30 30 30 32 0 10 -22 0 -40
-19z"/>
<path d="M1190 859 c-64 -26 -110 -97 -136 -206 -29 -124 0 -193 80 -193 23 1
55 7 71 14 28 13 27 13 -30 9 -84 -7 -101 7 -98 83 5 142 73 264 149 264 45 0
54 -23 24 -56 -13 -13 -19 -24 -13 -24 17 0 53 45 53 67 0 38 -54 61 -100 42z"/>
<path d="M3026 819 c-4 -24 -23 -94 -42 -155 -25 -79 -34 -126 -32 -160 3 -48
3 -48 45 81 45 138 62 231 46 260 -8 14 -11 9 -17 -26z"/>
<path d="M755 831 c-79 -50 -126 -136 -133 -248 -8 -118 20 -154 103 -139 50
10 50 22 1 18 -54 -5 -71 15 -71 77 1 89 12 119 54 140 20 11 54 38 75 61 29
33 37 48 34 73 -4 39 -22 44 -63 18z m35 -40 c0 -25 -39 -71 -79 -94 -36 -21
-37 -18 -15 26 34 68 94 111 94 68z"/>
<path d="M3666 838 c-19 -7 -24 -13 -16 -18 9 -6 9 -23 -4 -78 -21 -94 -21
-223 0 -268 19 -40 68 -84 92 -84 12 1 9 5 -10 15 -14 8 -36 35 -48 60 -20 40
-22 58 -18 138 5 101 33 211 51 204 13 -4 15 -35 4 -85 -10 -48 8 -31 29 28
10 27 24 50 31 50 16 0 17 8 -13 -108 -17 -66 -24 -119 -22 -158 l3 -59 23 85
c12 47 32 120 44 163 17 63 25 80 44 87 37 14 28 26 -18 25 -24 0 -65 3 -93 7
-28 3 -62 2 -79 -4z"/>
<path d="M233 513 c2 -70 5 -86 24 -104 l22 -22 -14 39 c-8 21 -15 55 -16 74
-1 19 -5 49 -10 65 -5 21 -7 5 -6 -52z"/>
<path d="M1421 509 c-1 -64 2 -81 20 -100 l20 -24 -7 24 c-3 13 -12 58 -19
100 l-13 76 -1 -76z"/>
<path d="M1700 535 c0 -47 26 -102 58 -124 24 -15 24 -15 -2 23 -14 21 -28 54
-32 75 -10 58 -23 72 -24 26z"/>
<path d="M3410 521 c0 -58 20 -105 51 -121 20 -11 20 -10 5 12 -8 13 -22 52
-30 87 -19 81 -26 87 -26 22z"/>
<path d="M3691 524 c-2 -67 30 -114 76 -114 14 0 12 3 -7 13 -17 9 -32 32 -47
72 -19 51 -22 56 -22 29z"/>
<path d="M2903 472 c4 -37 33 -89 43 -79 4 4 -35 110 -43 117 -3 3 -3 -14 0
-38z"/>
<path d="M3130 490 c0 -25 23 -72 44 -89 21 -17 20 -13 -4 37 -11 22 -20 45
-20 51 0 5 -4 13 -10 16 -5 3 -10 -3 -10 -15z"/>
<path d="M1029 461 c17 -31 52 -51 91 -51 37 0 113 30 124 49 9 15 5 14 -32
-5 -59 -29 -97 -29 -147 1 -42 24 -46 25 -36 6z"/>
<path d="M595 441 c31 -61 133 -62 187 -3 l23 24 -42 -21 c-23 -11 -56 -21
-74 -21 -31 0 -89 27 -89 42 0 4 -5 8 -10 8 -6 0 -4 -12 5 -29z"/>
<path d="M1902 160 c3 -61 9 -93 22 -113 25 -38 28 -30 11 28 -8 26 -15 69
-15 94 0 25 -5 53 -11 61 -7 11 -9 -9 -7 -70z"/>
</g>
</svg>
